<svg width="144" height="147" viewBox="0 0 144 147" fill="none" xmlns="http://www.w3.org/2000/svg">
<path d="M60.2062 0C59.8961 0 59.3503 0.160588 58.5 0.959515C57.6496 1.75906 56.6374 3.12776 55.6498 4.9001C53.6744 8.44478 51.765 13.5573 50.1714 18.9988C48.8286 23.583 47.7184 28.4047 46.8793 32.7727C63.7339 40.1903 80.2466 40.1903 97.1012 32.7727C96.2621 28.4047 95.1519 23.583 93.8091 18.9988C92.2155 13.5573 90.3064 8.44478 88.3308 4.9001C87.3431 3.12776 86.3306 1.75906 85.4806 0.959515C84.6302 0.160588 84.0844 0 83.7743 0C81.7586 0 80.9548 0.424632 80.4184 0.880147C79.8819 1.33535 79.4818 2.05676 79.0669 3.14691C78.652 4.23706 78.3236 5.62491 77.3458 7.0946C76.3677 8.56367 74.2748 9.88235 71.9903 9.88235C69.6852 9.88235 67.5743 8.58684 66.5773 7.10664C65.5806 5.62615 65.2563 4.22378 64.8482 3.12869C64.4401 2.0336 64.0496 1.31682 63.529 0.869647C63.008 0.423088 62.2219 0 60.2062 0ZM45.9068 38.3973C45.4695 41.2625 45.1948 43.6967 45.1098 45.3773C47.1596 46.9483 50.6099 48.4677 54.9533 49.4853C59.9519 50.6566 65.9742 51.2647 71.9903 51.2647C78.0063 51.2647 84.0286 50.6566 89.0276 49.4853C93.3706 48.4677 96.8206 46.9483 98.871 45.3773C98.7857 43.6964 98.511 41.2625 98.074 38.3973C80.7834 45.6027 63.1972 45.6027 45.9068 38.3973ZM39.722 42.0309C33.7661 43.0685 28.3392 44.3115 23.6218 45.6225C17.4572 47.3358 12.4874 49.1706 9.18787 50.7397C7.5381 51.5247 6.30015 52.2576 5.62349 52.7687C5.50875 52.8551 5.5469 52.8632 5.48549 52.9373C5.58876 53.1464 5.73978 53.3869 6.02198 53.7029C6.63382 54.3872 7.74742 55.2445 9.3175 56.0944C12.458 57.7941 17.3629 59.4785 23.4972 60.883C35.7656 63.6917 52.9816 65.4706 71.9903 65.4706C90.9989 65.4706 108.215 63.6917 120.483 60.883C126.617 59.4785 131.523 57.7941 134.663 56.0944C136.233 55.2445 137.346 54.3872 137.959 53.7029C138.241 53.3869 138.392 53.1464 138.495 52.9373C138.434 52.8632 138.472 52.8551 138.357 52.7684C137.68 52.2576 136.442 51.5247 134.793 50.74C131.493 49.1706 126.523 47.3358 120.359 45.6228C115.641 44.3115 110.214 43.0682 104.259 42.0309C104.447 43.818 104.552 45.3865 104.552 46.6323V47.7839L103.734 48.5974C100.595 51.7233 95.8502 53.5975 90.3055 54.8971C84.7605 56.1963 78.3785 56.8235 71.9903 56.8235C65.602 56.8235 59.22 56.1963 53.6753 54.8971C48.1306 53.5978 43.3853 51.7233 40.2467 48.5974L39.4289 47.7842V46.6323C39.4289 45.3865 39.5335 43.818 39.722 42.0309ZM40.0613 69.2706C40.5323 89.3025 54.8227 105 71.9903 105C89.1578 105 103.448 89.3025 103.919 69.2706C101.928 69.5035 99.9348 69.7108 97.9388 69.8923C97.5264 71.5142 95.804 77.6895 93.0776 79.3676C88.857 81.9654 82.5321 81.7629 78.1924 79.3676C75.7159 78.0008 73.5827 73.4394 72.5906 71.0257C72.3897 71.0263 72.1915 71.0294 71.9903 71.0294C71.7887 71.0294 71.5908 71.0263 71.3899 71.0257C70.3975 73.4394 68.2646 78.0008 65.7881 79.3676C61.4485 81.7629 55.1235 81.9654 50.9029 79.3676C48.1765 77.6895 46.4541 71.5142 46.0417 69.8923C44.0456 69.7108 42.052 69.5035 40.0613 69.2706ZM35.2115 76.6528C20.5025 80.7385 11.2578 86.6132 0 95.5163C13.2028 96.8881 20.9279 102.1 31.4031 110.562L36.6526 114.803L29.9276 115.485C25.6906 115.916 21.1062 118.148 17.7403 120.828C15.9029 122.291 14.5841 123.935 13.7223 125.262C27.5779 127.073 36.5037 128.376 44.1162 131.483C49.8852 133.838 54.9111 137.317 60.7805 142.533L62.4253 135.253C61.8553 132.247 61.1433 129.112 60.2921 125.895C58.7043 123.662 57.2846 121.304 56.2185 119.099C55.1241 116.836 54.3141 114.882 54.3141 112.721C54.3141 111.707 54.6044 110.745 55.0671 109.9C54.3826 108.151 53.6649 106.415 52.9143 104.692C43.8954 98.6709 37.3416 88.5227 35.2115 76.6528ZM108.769 76.6528C106.639 88.5227 100.085 98.6709 91.0662 104.692C90.3157 106.414 89.5979 108.15 88.9134 109.899C89.3764 110.745 89.6664 111.706 89.6664 112.721C89.6664 114.882 88.8564 116.836 87.7623 119.099C86.6956 121.305 85.2756 123.663 83.6875 125.896C82.826 129.153 82.1063 132.326 81.5326 135.367L83.1265 142.599C89.0279 137.346 94.0712 133.848 99.8643 131.483C107.477 128.377 116.402 127.073 130.258 125.262C129.396 123.935 128.078 122.291 126.24 120.828C122.874 118.148 118.29 115.916 114.053 115.486L107.328 114.803L112.577 110.562C123.053 102.1 130.778 96.8881 143.981 95.5163C132.723 86.6132 123.478 80.7388 108.769 76.6528ZM71.9903 110.559C69.5094 110.559 65.9146 110.589 63.2347 111.123C61.8947 111.39 60.8158 111.809 60.3218 112.149C59.8281 112.49 59.8961 112.412 59.8961 112.721C59.8961 113.029 60.3265 114.782 61.2481 116.688C62.1695 118.594 63.4955 120.801 64.9583 122.841C66.421 124.88 68.0361 126.762 69.444 128.031C70.7076 129.169 71.8758 129.612 71.9903 129.691C72.105 129.612 73.2729 129.169 74.5362 128.031C75.9441 126.762 77.5595 124.88 79.0223 122.841C80.485 120.801 81.811 118.594 82.7327 116.688C83.6543 114.782 84.0844 113.029 84.0844 112.721C84.0844 112.412 84.1527 112.49 83.6587 112.149C83.1647 111.809 82.0858 111.39 80.7458 111.123C78.0659 110.589 74.4711 110.559 71.9903 110.559ZM71.9903 129.691C71.9772 129.701 71.9744 129.706 71.9903 129.706C72.0061 129.706 72.0033 129.7 71.9903 129.691ZM68.3781 134.231L65.4926 147H78.3806L75.5717 134.25C74.5214 134.866 73.3699 135.265 71.9903 135.265C70.5972 135.265 69.4365 134.858 68.3781 134.231Z" fill="#E61613"/>
</svg>
