<svg width="147" height="147" viewBox="0 0 147 147" fill="none" xmlns="http://www.w3.org/2000/svg">
<path fill-rule="evenodd" clip-rule="evenodd" d="M93.9165 30.5433C92.8335 30.5433 91.7949 30.1131 91.0292 29.3473C90.2634 28.5816 89.8332 27.543 89.8332 26.46V7.68485C85.9465 5.955 81.8133 4.84317 77.5832 4.38961V18.2933C77.5832 19.3763 77.153 20.4149 76.3872 21.1807C75.6215 21.9465 74.5828 22.3767 73.4999 22.3767C72.4169 22.3767 71.3783 21.9465 70.6125 21.1807C69.8468 20.4149 69.4165 19.3763 69.4165 18.2933V4.16503C65.2006 4.38553 61.0552 5.33896 57.1666 6.98252V26.46C57.1666 27.543 56.7364 28.5816 55.9706 29.3473C55.2048 30.1131 54.1662 30.5433 53.0832 30.5433C52.0003 30.5433 50.9617 30.1131 50.1959 29.3473C49.4301 28.5816 48.9999 27.543 48.9999 26.46V12.0663C45.3649 15.1844 42.5119 19.1115 40.6699 23.5322C40.2779 23.8589 39.8941 24.1992 39.5184 24.5531C38.5262 28.2689 38.6323 31.3804 39.3347 33.3322C39.68 34.3463 39.6131 35.4554 39.1482 36.4205C38.6834 37.3857 37.8579 38.1295 36.8497 38.4916C35.8416 38.8537 34.7315 38.8052 33.7587 38.3564C32.786 37.9076 32.0287 37.0946 31.6499 36.0926C31.3999 35.3926 31.1979 34.6763 31.0455 33.9488C25.0594 42.3237 30.58 48.3752 41.2253 52.1074C40.4988 56.7665 40.7897 61.5276 42.0778 66.0636C43.366 70.5997 45.6209 74.8031 48.6876 78.385C51.7543 81.9669 55.5602 84.8424 59.8436 86.814C64.127 88.7855 68.7865 89.8064 73.5019 89.8064C78.2173 89.8064 82.8768 88.7855 87.1602 86.814C91.4437 84.8424 95.2495 81.9669 98.3162 78.385C101.383 74.8031 103.638 70.5997 104.926 66.0636C106.214 61.5276 106.505 56.7665 105.779 52.1074C116.44 48.367 121.961 42.2992 115.922 33.8998C115.758 34.6348 115.554 35.3562 115.309 36.064C115.138 36.5778 114.866 37.0525 114.51 37.4603C114.153 37.8681 113.719 38.2009 113.233 38.4393C112.746 38.6777 112.218 38.817 111.677 38.8491C111.136 38.8812 110.595 38.8053 110.083 38.626C109.572 38.4467 109.102 38.1675 108.7 37.8047C108.298 37.4419 107.972 37.0027 107.741 36.5127C107.51 36.0227 107.379 35.4917 107.356 34.9505C107.332 34.4094 107.417 33.869 107.604 33.3608C108.4 31.0905 108.42 28.0729 107.534 24.794C107.219 24.6173 106.897 24.4512 106.571 24.2958C104.929 20.2533 102.063 16.1986 97.9998 12.789V26.4682C97.9998 27.5511 97.5696 28.5897 96.8039 29.3555C96.0381 30.1213 94.9995 30.5515 93.9165 30.5515M76.1295 56.5827C76.8561 56.2374 77.5076 55.7523 78.0467 55.1552C78.5858 54.5581 79.0021 53.8607 79.2717 53.1027C79.5413 52.3447 79.6589 51.5411 79.6179 50.7377C79.577 49.9342 79.3781 49.1467 79.0328 48.4201C78.6875 47.6935 78.2024 47.0421 77.6053 46.5029C77.0082 45.9638 76.3107 45.5476 75.5528 45.278C74.7948 45.0084 73.9912 44.8907 73.1877 44.9317C72.3843 44.9727 71.5968 45.1715 70.8702 45.5169C69.4028 46.2143 68.2725 47.4661 67.7281 48.9969C67.1836 50.5277 67.2695 52.212 67.967 53.6794C68.6644 55.1469 69.9162 56.2771 71.447 56.8216C72.9778 57.3661 74.6621 57.2801 76.1295 56.5827ZM73.4999 65.3333C79.6657 65.3333 84.9169 61.4296 86.9218 55.962C90.5857 55.6124 94.2299 55.0796 97.8406 54.3654C97.9468 55.2856 97.9998 56.2193 97.9998 57.1666C97.9982 60.5011 97.3158 63.8001 95.9946 66.8617C94.6734 69.9233 92.7412 72.683 90.3162 74.9717C87.8912 77.2604 85.0246 79.0301 81.8918 80.1722C78.759 81.3144 75.4261 81.805 72.097 81.6141C68.768 81.4231 65.513 80.5547 62.5314 79.0618C59.5497 77.569 56.9042 75.4832 54.7568 72.9323C52.6093 70.3813 51.0053 67.4188 50.0428 64.2263C49.0803 61.0337 48.7796 57.6783 49.1592 54.3654C52.5973 55.0596 56.2723 55.5904 60.078 55.9579C61.0853 58.7074 62.9128 61.0812 65.3134 62.758C67.714 64.4348 70.5717 65.3338 73.4999 65.3333Z" fill="#FFB300"/>
<path d="M77.5832 4.08333C77.5832 3.00036 77.153 1.96175 76.3872 1.19598C75.6214 0.430207 74.5828 0 73.4999 0C72.4169 0 71.3783 0.430207 70.6125 1.19598C69.8467 1.96175 69.4165 3.00036 69.4165 4.08333H77.5832Z" fill="#FFB300"/>
<path fill-rule="evenodd" clip-rule="evenodd" d="M91.736 91.4667C96.4318 92.2181 101.324 93.2226 106.166 94.468V147H40.8332V94.468C45.5958 93.2509 50.4108 92.2495 55.2637 91.4667L69.4165 102.083H77.5832L91.736 91.4667ZM81.6665 126.583C81.6665 128.749 80.8061 130.826 79.2745 132.358C77.743 133.89 75.6658 134.75 73.4998 134.75C71.3339 134.75 69.2567 133.89 67.7251 132.358C66.1936 130.826 65.3332 128.749 65.3332 126.583C65.3332 124.417 66.1936 122.34 67.7251 120.809C69.2567 119.277 71.3339 118.417 73.4998 118.417C75.6658 118.417 77.743 119.277 79.2745 120.809C80.8061 122.34 81.6665 124.417 81.6665 126.583Z" fill="#FFB300"/>
<path d="M24.5 99.7353C27.1855 98.66 29.9096 97.6834 32.6666 96.8076V147H24.5V99.7353ZM114.333 96.8076C117.138 97.7059 119.874 98.6818 122.5 99.7353V147H114.333V96.8076ZM16.3333 103.492C6.67624 108.604 0 115.015 0 122.5V147H16.3333V103.492ZM147 122.5C147 115.015 140.324 108.6 130.666 103.492V147H147V122.5Z" fill="#FFB300"/>
</svg>
